# xmcd
#
# Track frame offsets:
#	150
#	18863
#	48947
#	74634
#
# Disc length: 1182 seconds
#
# Revision: 1
# Processed by: cddbd v1.4PL0 Copyright (c) Steve Scherf et al.
# Submitted via: dBpowerAMP V4.0
#
DISCID=2e049c04
DTITLE=Gov't Mule - The Deep End, Vol. 2 [CD2]
DYEAR=2002
DGENRE=Southern Rock
TTITLE0=Drivin' Rain
TTITLE1=Rocking Horse
TTITLE2=Lay Your Burden Down
TTITLE3=Sco-Mule (dj Logic Remix)
EXTD=
EXTT0=
EXTT1=
EXTT2=
EXTT3=
PLAYORDER=
